<?xml version="1.0" encoding="UTF-8"?>
<svg xmlns="http://www.w3.org/2000/svg" xmlns:xlink="http://www.w3.org/1999/xlink" width="184.9pt" height="184.9pt" viewBox="0 0 184.9 184.9" version="1.1">
<defs>
<clipPath id="clip1">
  <path d="M 0 0 L 184.898438 0 L 184.898438 184.898438 L 0 184.898438 Z M 0 0 "/>
</clipPath>
</defs>
<g id="surface1">
<g clip-path="url(#clip1)" clip-rule="nonzero">
<path style="fill-rule:evenodd;fill:rgb(50.193787%,50.976563%,52.146912%);fill-opacity:1;stroke-width:5.669;stroke-linecap:butt;stroke-linejoin:miter;stroke:rgb(50.193787%,50.976563%,52.146912%);stroke-opacity:1;stroke-miterlimit:4;" d="M 925 1846.265625 C 1433.789063 1846.265625 1846.25 1433.804688 1846.25 925.015625 C 1846.25 416.226563 1433.789063 3.765625 925 3.765625 C 416.210938 3.765625 3.75 416.226563 3.75 925.015625 C 3.75 1433.804688 416.210938 1846.265625 925 1846.265625 Z M 1547.070313 808.960938 C 1508.554688 738.101563 1498.046875 646.851563 1536.5625 519.9375 C 1474.375 532.789063 1435.859375 518.492188 1394.6875 475.289063 C 1282.773438 360.523438 1110.664063 300.328125 992.695313 286.109375 C 1175.585938 353.804688 1354.023438 404.273438 1229.140625 682.828125 L 904.921875 1458.960938 L 627.460938 695.992188 C 502.617188 417.398438 688.90625 353.804688 871.796875 286.109375 C 753.867188 300.328125 581.757813 350.015625 469.804688 464.78125 C 428.671875 507.984375 379.609375 530.132813 317.421875 517.320313 C 355.976563 644.234375 345.46875 735.484375 306.914063 806.34375 C 413.046875 757.789063 542.382813 739.273438 630.078125 958.726563 L 930.625 1698.6875 C 1031.328125 1449.078125 1133.671875 1208.335938 1234.414063 958.726563 C 1315.195313 763.492188 1433.867188 785.210938 1547.070313 808.960938 Z M 299.023438 480.523438 C 523.671875 222.4375 888.90625 153.53125 921.757813 299.234375 C 977.421875 163.101563 1307.460938 207.59375 1552.34375 488.414063 C 1231.5625 58.570313 601.40625 57.320313 299.023438 480.523438 Z M 925 1775.40625 C 1394.648438 1775.40625 1775.390625 1394.664063 1775.390625 925.015625 C 1775.390625 455.367188 1394.648438 74.625 925 74.625 C 455.351563 74.625 74.609375 455.367188 74.609375 925.015625 C 74.609375 1394.664063 455.351563 1775.40625 925 1775.40625 Z M 925 1709.78125 C 1358.398438 1709.78125 1709.765625 1358.414063 1709.765625 925.015625 C 1709.765625 491.617188 1358.398438 140.289063 925 140.289063 C 491.601563 140.289063 140.273438 491.617188 140.273438 925.015625 C 140.273438 1358.414063 491.601563 1709.78125 925 1709.78125 Z M 925 1709.78125 " transform="matrix(0.1,0,0,-0.1,0,184.9)"/>
</g>
</g>
</svg>
